<svg xmlns="http://www.w3.org/2000/svg" viewBox="0 0 22.27 18.1"><defs><style>.cls-1{fill:rgb(242, 170, 37);}</style></defs><title>twitter</title><g id="Layer_2" data-name="Layer 2"><g id="Layer_1-2" data-name="Layer 1"><path class="cls-1" d="M7,18.1a13,13,0,0,1-7-2.05,9.82,9.82,0,0,0,1.09.06,9.12,9.12,0,0,0,5.67-2A4.55,4.55,0,0,1,2.5,11a4.82,4.82,0,0,0,.86.08,4.34,4.34,0,0,0,1.2-.16A4.58,4.58,0,0,1,.89,6.37h0A4.71,4.71,0,0,0,3,6.94,4.57,4.57,0,0,1,1.55.84,13,13,0,0,0,11,5.61,4.78,4.78,0,0,1,10.88,4a4.57,4.57,0,0,1,7.87-2.56A8.92,8.92,0,0,0,21.66.33a4.57,4.57,0,0,1-2,2.53,8.93,8.93,0,0,0,2.62-.72A9.34,9.34,0,0,1,20,4.51c0,.19,0,.39,0,.59a12.91,12.91,0,0,1-13,13"/></g></g></svg>